<svg width="40" height="40" viewBox="0 0 40 40" fill="none" xmlns="http://www.w3.org/2000/svg">
<path d="M36 0H4C1.79086 0 0 1.79086 0 4V36C0 38.2091 1.79086 40 4 40H36C38.2091 40 40 38.2091 40 36V4C40 1.79086 38.2091 0 36 0Z" fill="url(#paint0_linear)"/>
<path fill-rule="evenodd" clip-rule="evenodd" d="M26.1283 21.641L29.6108 21.6394C29.6733 21.6397 29.7324 21.6674 29.7719 21.7151C29.8114 21.7627 29.8272 21.8252 29.815 21.8855C28.8989 26.5094 24.7847 29.8465 20 29.8465C15.2153 29.8465 11.1011 26.5094 10.185 21.8855C10.1726 21.8254 10.1885 21.7629 10.2283 21.7157C10.268 21.6685 10.3269 21.6411 10.3892 21.641H14.0608C14.9812 21.7183 15.8617 21.2559 16.3092 20.4603C16.7819 19.4826 17.1183 18.4465 17.3092 17.3801C17.331 17.2885 17.4134 17.2233 17.509 17.2219C17.6045 17.2205 17.6888 17.2834 17.7133 17.3744L19.6492 24.4743C19.8203 24.982 20.298 25.3283 20.8413 25.3385C21.3845 25.3486 21.8753 25.0204 22.0658 24.5194L23.38 20.4061C23.4033 20.3306 23.4691 20.2752 23.5485 20.2643C23.6279 20.2534 23.7066 20.2889 23.75 20.3553C24.2291 21.1951 25.1515 21.6938 26.1283 21.641ZM14.0608 20H10.21C10.1537 20.0007 10.0995 19.9788 10.0598 19.9393C10.0202 19.8999 9.99864 19.8462 10 19.7908C10.0697 14.4029 14.525 10.071 19.9975 10.0701C25.47 10.0692 29.9268 14.3996 29.9983 19.7875C29.9998 19.8426 29.9785 19.8959 29.9392 19.9352C29.8998 19.9745 29.8461 19.9967 29.79 19.9967H26.1292C25.4208 19.9967 25.28 19.7703 24.7958 18.8086C24.725 18.6593 24.6417 18.5042 24.5583 18.3458C24.3175 17.9215 23.8481 17.6736 23.3558 17.7108C22.8469 17.7271 22.4006 18.0498 22.2325 18.5231L21.1117 22.0398C21.0838 22.1268 21.0009 22.1852 20.9082 22.1831C20.8156 22.181 20.7355 22.1189 20.7117 22.0308L18.7117 14.7052C18.5504 14.1828 18.0543 13.8311 17.5 13.8461C16.9472 13.829 16.4504 14.1765 16.285 14.6962C16.0292 15.6217 15.8275 16.4078 15.6558 17.0757C14.905 20 14.8408 20 14.0608 20Z" fill="url(#paint1_linear)"/>
<defs>
<linearGradient id="paint0_linear" x1="20" y1="0" x2="20" y2="40" gradientUnits="userSpaceOnUse">
<stop stop-color="#F2E6FF"/>
<stop offset="1" stop-color="#E5CCFF"/>
</linearGradient>
<linearGradient id="paint1_linear" x1="19.9992" y1="17.3008" x2="19.9992" y2="29.8465" gradientUnits="userSpaceOnUse">
<stop stop-color="#8C18FE"/>
<stop offset="1" stop-color="#692DBE"/>
</linearGradient>
</defs>
</svg>
