<svg width="40" height="40" viewBox="0 0 40 40" fill="none" xmlns="http://www.w3.org/2000/svg">
<path d="M36 0H4C1.79086 0 0 1.79086 0 4V36C0 38.2091 1.79086 40 4 40H36C38.2091 40 40 38.2091 40 36V4C40 1.79086 38.2091 0 36 0Z" fill="url(#paint0_linear)"/>
<path fill-rule="evenodd" clip-rule="evenodd" d="M8 28H33V8H8V28Z" fill="url(#paint1_linear)"/>
<path fill-rule="evenodd" clip-rule="evenodd" d="M28 32.7367V33.9208H14V32.7367L18.6667 30.9604V28H23.3333V30.9604L28 32.7367Z" fill="url(#paint2_linear)"/>
<path d="M33 28V24.5H8L8 28H33Z" fill="#F2E6FF"/>
<path fill-rule="evenodd" clip-rule="evenodd" d="M28 13.3L24.1 15.25V12H15V21.1H24.1V17.85L28 19.8V13.3Z" fill="#F2E6FF"/>
<defs>
<linearGradient id="paint0_linear" x1="20" y1="0" x2="20" y2="40" gradientUnits="userSpaceOnUse">
<stop stop-color="#F2E6FF"/>
<stop offset="1" stop-color="#E5CCFF"/>
</linearGradient>
<linearGradient id="paint1_linear" x1="20.5" y1="12.4062" x2="20.5" y2="28" gradientUnits="userSpaceOnUse">
<stop stop-color="#850CFC"/>
<stop offset="1" stop-color="#692DBE"/>
</linearGradient>
<linearGradient id="paint2_linear" x1="21" y1="28" x2="21" y2="33.9208" gradientUnits="userSpaceOnUse">
<stop stop-color="#8922EE"/>
<stop offset="1" stop-color="#692DBE"/>
</linearGradient>
</defs>
</svg>
