<svg xmlns="http://www.w3.org/2000/svg" xmlns:xlink="http://www.w3.org/1999/xlink" width="40" height="40" fill="none" xmlns:v="https://vecta.io/nano"><path d="M36 0H4a4 4 0 0 0-4 4v32a4 4 0 0 0 4 4h32a4 4 0 0 0 4-4V4a4 4 0 0 0-4-4z" fill="url(#B)"/><path d="M22.444 11.444V17.8l2.933-2.445L28.31 17.8v-6.356h-5.867z" fill="#cce7ff"/><path d="M26.673 9h1.393c.8 0 1.467.657 1.467 1.467v19.067c0 .8-.657 1.467-1.467 1.467H11.933c-.8 0-1.467-.657-1.467-1.467V10.467c0-.8.657-1.467 1.467-1.467h9.02" fill="#7c19dd"/><g filter="url(#A)"><path d="M26.233 15.6l-2.2-1.94-2.2 1.94V9h4.4v6.6z" fill="#000"/></g><path d="M26.6 16.333l-2.567-2.157-2.567 2.157V9H26.6v7.333z" fill="#fff"/><g fill="#f2e6ff"><use xlink:href="#C"/><use xlink:href="#C" y="4.4"/><path d="M19.267 17.617c0 .1-.055.183-.122.183h-5.622c-.067 0-.122-.082-.122-.183v-1.1c0-.1.055-.183.122-.183h5.622c.067 0 .122.082.122.183v1.1z"/></g><defs><filter id="A" x="18.167" y="7.533" width="11.733" height="13.933" filterUnits="userSpaceOnUse" color-interpolation-filters="sRGB"><feFlood flood-opacity="0" result="A"/><feColorMatrix in="SourceAlpha" values="0 0 0 0 0 0 0 0 0 0 0 0 0 0 0 0 0 0 127 0"/><feOffset dy="2.2"/><feGaussianBlur stdDeviation="1.833"/><feColorMatrix values="0 0 0 0 0.305882 0 0 0 0 0.0784314 0 0 0 0 0.54902 0 0 0 0.9 0"/><feBlend in2="A"/><feBlend in="SourceGraphic"/></filter><linearGradient id="B" x1="20" y1="0" x2="20" y2="40" gradientUnits="userSpaceOnUse"><stop stop-color="#f2e6ff"/><stop offset="1" stop-color="#e5caff"/></linearGradient><path id="C" d="M26.6 22.017c0 .1-.123.183-.275.183h-12.65c-.152 0-.275-.082-.275-.183v-1.1c0-.1.123-.183.275-.183h12.65c.152 0 .275.082.275.183v1.1z"/></defs></svg>