<svg xmlns="http://www.w3.org/2000/svg" width="40" height="40" fill="none" xmlns:v="https://vecta.io/nano"><path d="M36 0H4a4 4 0 0 0-4 4v32a4 4 0 0 0 4 4h32a4 4 0 0 0 4-4V4a4 4 0 0 0-4-4z" fill="url(#A)"/><g clip-path="url(#C)"><path d="M21.35 15.243a.25.25 0 0 0 .06-.249.25.25 0 0 0-.191-.17 5.16 5.16 0 0 0-.991-.1 6.44 6.44 0 0 0-4.847 2.426.5.5 0 0 0 0 .649 7.75 7.75 0 0 0 1.562 1.389.5.5 0 0 0 .636-.068l3.77-3.877z" fill="#000"/><path d="M29.75 9a1 1 0 0 0-1-1h-16.5a2 2 0 0 0-2 2v19a3 3 0 0 0 3 3h13.5a2 2 0 0 0 2-2v-1.585a.5.5 0 0 1 .333-.472A1 1 0 0 0 29.75 27V9zm-3 20.5a.5.5 0 0 1-.5.5h-13a1 1 0 0 1-1-1 1 1 0 0 1 1-1h13a.5.5 0 0 1 .5.5v1z" fill="url(#B)"/></g><path d="M19.965 18.04c-1.114 0-2.017-.9-2.017-2s.903-2 2.017-2 2.017.9 2.017 2-.903 2-2.017 2zm2.576-5.107a1.96 1.96 0 0 0 .35-.522 1.97 1.97 0 0 0 .116-1.354v-.001l-3.983 1.06c-1.774.423-3.093 2.014-3.093 3.912a4.035 4.035 0 1 0 8.07 0 4.01 4.01 0 0 0-1.459-3.096zm-.864 7.542l-3.933 1.05c-1.086.3-1.732 1.398-1.442 2.475l5.9-1.575c1.086-.3 1.732-1.398 1.442-2.475l-1.966.525z" fill-rule="evenodd" fill="#fff"/><defs><linearGradient id="A" x1="20" y1="0" x2="20" y2="40" gradientUnits="userSpaceOnUse"><stop stop-color="#f2e6ff"/><stop offset="1" stop-color="#e5caff"/></linearGradient><linearGradient id="B" x1="19.808" y1="1.25" x2="19.808" y2="39.672" gradientUnits="userSpaceOnUse"><stop stop-color="#8622ea"/><stop offset="1" stop-color="#6b2cc2"/></linearGradient><clipPath id="C"><path fill="#fff" transform="translate(8 8)" d="M0 0h24v24H0z"/></clipPath></defs></svg>