<?xml version="1.0" encoding="UTF-8"?>
<svg width="80px" height="80px" viewBox="0 0 80 80" version="1.1" xmlns="http://www.w3.org/2000/svg" xmlns:xlink="http://www.w3.org/1999/xlink">
    <!-- Generator: Sketch 52.6 (67491) - http://www.bohemiancoding.com/sketch -->
    <title>Group 3</title>
    <desc>Created with Sketch.</desc>
    <defs>
        <linearGradient x1="50%" y1="33.4130859%" x2="50%" y2="94.0004469%" id="linearGradient-1">
            <stop stop-color="#A143FF" offset="0%"></stop>
            <stop stop-color="#692DBE" offset="100%"></stop>
        </linearGradient>
        <path d="M8,0 L72,0 C76.418278,-8.11624501e-16 80,3.581722 80,8 L80,72 C80,76.418278 76.418278,80 72,80 L8,80 C3.581722,80 5.41083001e-16,76.418278 0,72 L0,8 C-5.41083001e-16,3.581722 3.581722,8.11624501e-16 8,0 Z" id="path-2"></path>
    </defs>
    <g id="CVI-explorations" stroke="none" stroke-width="1" fill="none" fill-rule="evenodd">
        <g id="Platform-Icons" transform="translate(-1315.000000, -708.000000)">
            <g id="Group-3" transform="translate(1315.000000, 708.000000)">
                <rect id="Shadow" fill="#9C918E" fill-rule="nonzero" x="7.2" y="8.8" width="63.2" height="69.6" rx="12.8"></rect>
                <g id="Group-27">
                    <mask id="mask-3" fill="white">
                        <use xlink:href="#path-2"></use>
                    </mask>
                    <use id="Mask" fill="url(#linearGradient-1)" xlink:href="#path-2"></use>
                </g>
                <g id="Group-2" transform="translate(21.000000, 22.000000)" fill="#FFFFFF">
                    <path d="M13.1528363,9.91484129 L18.7491208,30.2030209 C14.2447177,31.3957895 9.60135035,28.705211 8.37813391,24.1937174 L5.28093657,12.0421552 L-3.5478287e-12,13.4692834 L6.36731163,1.99396055e-13 L18.5590809,8.45384966 L13.1528363,9.91484129 Z M25.6838938,18.9852424 L21.0331949,20.2420542 L27.0025496,7.61460098 L38.4323333,15.540085 L33.6410997,16.8348752 C33.838426,17.3717528 34.0264596,17.9936989 34.2198707,18.7070787 L36.8603,28.4645487 L39.0753062,36.6335547 C34.5709032,37.8263232 29.9275358,35.1357447 28.7043193,30.6242512 L25.6838938,18.9852424 Z" id="Combined-Shape"></path>
                </g>
            </g>
        </g>
    </g>
</svg>