<svg width="40" height="40" viewBox="0 0 40 40" fill="none" xmlns="http://www.w3.org/2000/svg">
<path d="M36 0H4C1.79086 0 0 1.79086 0 4V36C0 38.2091 1.79086 40 4 40H36C38.2091 40 40 38.2091 40 36V4C40 1.79086 38.2091 0 36 0Z" fill="url(#paint0_linear)"/>
<path fill-rule="evenodd" clip-rule="evenodd" d="M13 18L23 28H13V18ZM9 8V32H33L9 8Z" fill="url(#paint1_linear)"/>
<path d="M12.2607 12.9783L13.6194 11.6196" stroke="#F2E6FF" stroke-width="1.08696" stroke-linecap="round" stroke-linejoin="round"/>
<path d="M14.7061 15.4241L16.0648 14.0654" stroke="#F2E6FF" stroke-width="1.08696" stroke-linecap="round" stroke-linejoin="round"/>
<path d="M17.1523 17.8694L18.511 16.5107" stroke="#F2E6FF" stroke-width="1.08696" stroke-linecap="round" stroke-linejoin="round"/>
<path d="M19.5977 20.3152L20.9564 18.9565" stroke="#F2E6FF" stroke-width="1.08696" stroke-linecap="round" stroke-linejoin="round"/>
<path d="M22.0439 22.761L23.4026 21.4023" stroke="#F2E6FF" stroke-width="1.08696" stroke-linecap="round" stroke-linejoin="round"/>
<path d="M24.4893 25.2066L25.8458 23.8501" stroke="#F2E6FF" stroke-width="1.08696" stroke-linecap="round" stroke-linejoin="round"/>
<path d="M26.9346 27.6522L28.2933 26.2935" stroke="#F2E6FF" stroke-width="1.08696" stroke-linecap="round" stroke-linejoin="round"/>
<defs>
<linearGradient id="paint0_linear" x1="20" y1="0" x2="20" y2="40" gradientUnits="userSpaceOnUse">
<stop stop-color="#F2E6FF"/>
<stop offset="1" stop-color="#E5CCFF"/>
</linearGradient>
<linearGradient id="paint1_linear" x1="21" y1="20" x2="21" y2="32" gradientUnits="userSpaceOnUse">
<stop stop-color="#901FFF"/>
<stop offset="1" stop-color="#692DBE"/>
</linearGradient>
</defs>
</svg>
