<svg width="40" height="40" fill="none" xmlns="http://www.w3.org/2000/svg"><g fill-rule="evenodd" clip-rule="evenodd"><path d="M0 5a5 5 0 015-5h30a5 5 0 015 5v30a5 5 0 01-5 5H5a5 5 0 01-5-5V5z" fill="url(#paint0_linear)"/><g fill="#fff"><path d="M28.454 12.724l-4.577 6.644-.743-2.767c-.27.096-.577.19-.923.283l-.131.036-5.677 1.51-4.752 1.268c-.693-2.573.829-5.22 3.405-5.951l.08-.022 6.762-1.726-.737-2.745 7.293 3.47zM11.483 28.847l4.577-6.644.743 2.767c.27-.096.577-.19.923-.284l.131-.035 5.677-1.51 4.752-1.268c.693 2.573-.829 5.219-3.405 5.951l-.08.022-6.762 1.726.737 2.744-7.293-3.47z"/></g></g><defs><linearGradient id="paint0_linear" x1="38.509" y1="47.813" x2="38.509" y2="0" gradientUnits="userSpaceOnUse"><stop stop-color="#00B233"/><stop offset="0" stop-color="#138A35"/><stop offset="1" stop-color="#0EF04E"/></linearGradient></defs></svg>