<svg xmlns="http://www.w3.org/2000/svg" width="40" height="40" fill="none" xmlns:v="https://vecta.io/nano"><g clip-path="url(#C)"><path d="M36 0H4a4 4 0 0 0-4 4v32a4 4 0 0 0 4 4h32a4 4 0 0 0 4-4V4a4 4 0 0 0-4-4z" fill="url(#B)"/><path d="M13.815 29.51H30v-16.89H13.815v16.89z" fill="#7c19dd"/><path d="M22.26 13.692v5.967l2.463-1.853 2.463 1.853v-5.967H22.26z" fill="#fff"/><g filter="url(#A)"><path d="M11 11.214V27.68l2.815 1.83V13.044L11 11.214z" fill="#000"/></g><path d="M11 11.214V27.68l2.815 1.83V13.044L11 11.214z" fill="#932af9"/><g stroke="#7c19dd" stroke-width=".915" stroke-linecap="round" stroke-linejoin="round"><path d="M29.062 11.214H14.52"/><path d="M30 9.338H14.05l-2.815 1.877 2.815 1.877h15.838"/></g></g><defs><filter id="A" x="2.556" y="9.103" width="19.704" height="35.185" filterUnits="userSpaceOnUse" color-interpolation-filters="sRGB"><feFlood flood-opacity="0" result="A"/><feColorMatrix in="SourceAlpha" values="0 0 0 0 0 0 0 0 0 0 0 0 0 0 0 0 0 0 127 0"/><feOffset dy="6.33333"/><feGaussianBlur stdDeviation="4.222"/><feColorMatrix values="0 0 0 0 0.263811 0 0 0 0 0.509525 0 0 0 0 0.905107 0 0 0 0.506001 0"/><feBlend in2="A"/><feBlend in="SourceGraphic"/></filter><linearGradient id="B" x1="20" y1="0" x2="20" y2="40" gradientUnits="userSpaceOnUse"><stop stop-color="#f2e6ff"/><stop offset="1" stop-color="#e5caff"/></linearGradient><clipPath id="C"><path fill="#fff" d="M0 0h40v40H0z"/></clipPath></defs></svg>