<svg width="40" height="40" viewBox="0 0 40 40" fill="none" xmlns="http://www.w3.org/2000/svg">
<path d="M36 0H4C1.79086 0 0 1.79086 0 4V36C0 38.2091 1.79086 40 4 40H36C38.2091 40 40 38.2091 40 36V4C40 1.79086 38.2091 0 36 0Z" fill="url(#paint0_linear)"/>
<path fill-rule="evenodd" clip-rule="evenodd" d="M31.4267 23.0083H31.425C31.5628 23.1189 31.6159 23.3044 31.5575 23.4712C31.499 23.6379 31.3417 23.7497 31.165 23.75H19.165C18.8878 23.7503 18.6285 23.6126 18.4735 23.3829C18.3184 23.1531 18.2877 22.8612 18.3917 22.6042C18.6665 22.0236 19.1228 21.5483 19.6917 21.25H16.1667C15.9365 21.25 15.75 21.0635 15.75 20.8333V10.8333C15.75 10.6032 15.9365 10.4167 16.1667 10.4167H21.1667C21.857 10.4167 22.4167 10.9763 22.4167 11.6667V12.9167H30.3333C30.8892 12.9167 31.0683 13.1842 31.1242 13.3508C31.18 13.5175 31.2108 13.8358 30.7758 14.1842L25.7867 18.175C25.7371 18.2144 25.7082 18.2742 25.7082 18.3375C25.7082 18.4008 25.7371 18.4606 25.7867 18.5L31.4267 23.0083ZM13.25 10C13.9404 10 14.5 10.5596 14.5 11.25V28.75C14.5 29.4404 13.9404 30 13.25 30C12.5596 30 12 29.4404 12 28.75V11.25C12 10.5596 12.5596 10 13.25 10Z" fill="url(#paint1_linear)"/>
<defs>
<linearGradient id="paint0_linear" x1="20" y1="0" x2="20" y2="40" gradientUnits="userSpaceOnUse">
<stop stop-color="#F2E6FF"/>
<stop offset="1" stop-color="#E5CCFF"/>
</linearGradient>
<linearGradient id="paint1_linear" x1="21.7905" y1="10" x2="21.7905" y2="30" gradientUnits="userSpaceOnUse">
<stop stop-color="#8922EE"/>
<stop offset="1" stop-color="#692DBE"/>
</linearGradient>
</defs>
</svg>
