<svg xmlns="http://www.w3.org/2000/svg" width="40" height="40" fill="none" xmlns:v="https://vecta.io/nano"><g clip-path="url(#C)"><path d="M36 0H4a4 4 0 0 0-4 4v32a4 4 0 0 0 4 4h32a4 4 0 0 0 4-4V4a4 4 0 0 0-4-4z" fill="url(#B)"/><path d="M9 25.7h22V8.24H9V25.7z" fill="#7c19dd"/><g fill="#f2e6ff"><path d="M15.828 20.105c0 .15-.106.274-.237.274h-3.32c-.13 0-.237-.123-.237-.274V10.8c0-.15.106-.274.237-.274h3.32c.13 0 .237.123.237.274v9.314zM27.966 14.7c0 .2-.1.38-.22.38h-10.18c-.122 0-.22-.17-.22-.38v-3.793c0-.2.1-.38.22-.38h10.178c.122 0 .22.17.22.38V14.7zm0 5.205c0 .262-.1.474-.22.474h-10.18c-.122 0-.22-.212-.22-.474V17.06c0-.262.1-.474.22-.474h10.178c.122 0 .22.212.22.474v2.845z"/></g><g filter="url(#A)"><path d="M26.448 29.938V31H14.3v-1.062l4.046-1.593V25.7h4.046v2.655l4.046 1.593z" fill="#000"/></g><path d="M26.448 29.938V31H14.3v-1.062l4.046-1.593V25.7h4.046v2.655l4.046 1.593z" fill="#7c19dd"/><path d="M31 25.7v-3.035H9V25.7h22z" fill="#fff"/><path d="M27.966 24.93a.76.76 0 0 1-.759-.759.76.76 0 0 1 .759-.759h.76a.76.76 0 0 1 .759.759.76.76 0 0 1-.759.759h-.76z" fill="#7c19dd"/></g><defs><filter id="A" x="5.207" y="23.414" width="30.345" height="23.517" filterUnits="userSpaceOnUse" color-interpolation-filters="sRGB"><feFlood flood-opacity="0" result="A"/><feColorMatrix in="SourceAlpha" values="0 0 0 0 0 0 0 0 0 0 0 0 0 0 0 0 0 0 127 0"/><feOffset dy="6.82759"/><feGaussianBlur stdDeviation="4.552"/><feColorMatrix values="0 0 0 0 0.486275 0 0 0 0 0.0980392 0 0 0 0 0.866667 0 0 0 0.354922 0"/><feBlend in2="A"/><feBlend in="SourceGraphic"/></filter><linearGradient id="B" x1="20" y1="0" x2="20" y2="40" gradientUnits="userSpaceOnUse"><stop stop-color="#f2e6ff"/><stop offset="1" stop-color="#e5caff"/></linearGradient><clipPath id="C"><path fill="#fff" d="M0 0h40v40H0z"/></clipPath></defs></svg>