<svg width="40" height="40" viewBox="0 0 40 40" fill="none" xmlns="http://www.w3.org/2000/svg">
<path d="M36 0H4C1.79086 0 0 1.79086 0 4V36C0 38.2091 1.79086 40 4 40H36C38.2091 40 40 38.2091 40 36V4C40 1.79086 38.2091 0 36 0Z" fill="url(#paint0_linear)"/>
<path fill-rule="evenodd" clip-rule="evenodd" d="M31 17.6843C30.9999 18.4464 30.5945 19.1494 29.9392 19.5235C30.089 19.801 30.1672 20.1124 30.1667 20.4287C30.1664 21.1444 29.7697 21.7993 29.14 22.1235C29.5944 23.0567 29.2227 24.1866 28.3067 24.6568C28.434 24.9178 28.5002 25.2051 28.5 25.4962C28.5 26.0451 28.2558 26.974 26.625 26.974H21.2083C20.0556 26.9805 18.9063 26.847 17.785 26.5763C17.53 26.5214 17.26 26.4656 16.9625 26.4074C16.7665 26.3689 16.625 26.195 16.625 25.9927V17.4503C16.6249 17.3114 16.6922 17.1813 16.805 17.1024C18.3925 15.992 20.1667 13.4587 20.1667 11.1398C20.1339 10.2919 20.727 9.55103 21.5525 9.4087C22.365 9.2947 23.4033 9.80559 23.8933 11.5747C24.0694 12.8323 23.9201 14.1146 23.46 15.2962C23.4392 15.3604 23.45 15.4309 23.4891 15.4857C23.5281 15.5405 23.5908 15.573 23.6575 15.5731H28.9167C29.4692 15.5731 29.9991 15.7956 30.3898 16.1915C30.7805 16.5874 31 17.1244 31 17.6843ZM15.375 17.4731V26.762C15.375 27.2284 15.0019 27.6065 14.5417 27.6065H11.8333C11.3731 27.6065 11 27.2284 11 26.762V17.4731C11 17.0068 11.3731 16.6287 11.8333 16.6287H14.5417C15.0019 16.6287 15.375 17.0068 15.375 17.4731ZM14.125 25.2843C14.125 24.9345 13.8452 24.6509 13.5 24.6509C13.1548 24.6509 12.875 24.9345 12.875 25.2843C12.875 25.634 13.1548 25.9176 13.5 25.9176C13.8452 25.9176 14.125 25.634 14.125 25.2843Z" fill="url(#paint1_linear)"/>
<defs>
<linearGradient id="paint0_linear" x1="20" y1="0" x2="20" y2="40" gradientUnits="userSpaceOnUse">
<stop stop-color="#F2E6FF"/>
<stop offset="1" stop-color="#E5CCFF"/>
</linearGradient>
<linearGradient id="paint1_linear" x1="21" y1="14.7441" x2="21" y2="27.6065" gradientUnits="userSpaceOnUse">
<stop stop-color="#8A13FF"/>
<stop offset="1" stop-color="#692DBE"/>
</linearGradient>
</defs>
</svg>
