<svg xmlns="http://www.w3.org/2000/svg" width="40" height="40" fill="none" xmlns:v="https://vecta.io/nano"><path d="M36 0H4a4 4 0 0 0-4 4v32a4 4 0 0 0 4 4h32a4 4 0 0 0 4-4V4a4 4 0 0 0-4-4z" fill="url(#A)"/><path d="M11.416 10c-.376 0-.736.15-1 .415s-.415.626-.415 1v8.5c0 4.545 6.83 9.603 9.154 11.105.463.302 1.06.302 1.524 0 2.322-1.5 9.152-6.56 9.152-11.105v-8.5c0-.782-.633-1.415-1.415-1.416h-17z" fill="url(#B)"/><path d="M14.957 19.733l2.314 3.287a.99.99 0 0 0 1.612.048l7.406-9.375" stroke="#edddfe" stroke-width="1.5" stroke-linecap="round" stroke-linejoin="round"/><defs><linearGradient id="A" x1="20" y1="0" x2="20" y2="40" gradientUnits="userSpaceOnUse"><stop stop-color="#f2e6ff"/><stop offset="1" stop-color="#e5ccff"/></linearGradient><linearGradient id="B" x1="19.915" y1="20.624" x2="19.915" y2="31.248" gradientUnits="userSpaceOnUse"><stop stop-color="#901fff"/><stop offset="1" stop-color="#692dbe"/></linearGradient></defs></svg>