<svg xmlns="http://www.w3.org/2000/svg" width="40" height="40" fill="none" xmlns:v="https://vecta.io/nano"><g fill-rule="evenodd"><path d="M0 4a4 4 0 0 1 4-4h32a4 4 0 0 1 4 4v32a4 4 0 0 1-4 4H4a4 4 0 0 1-4-4V4z" fill="url(#A)"/><path d="M28.596 12.28l-8.035-.016c-.204-.001-.407.014-.61.044-3.568-.02-6.82 2.3-7.77 5.84-.573 2.14-.194 4.315.88 6.1l-1.92-.004c-2.22-.004-4.014 1.77-4 3.962l12.053.024a4.1 4.1 0 0 0 .66-.052c3.642.106 6.994-2.233 7.96-5.836.573-2.138.195-4.3-.877-6.086l1.677.003c2.22.004 4.014-1.77 4-3.963l-4.02-.006zm-9.628 11.784c2.157.578 4.364-.666 4.93-2.778s-.724-4.293-2.88-4.87-4.364.666-4.93 2.778.724 4.293 2.88 4.87z" fill="#fff"/></g><defs><linearGradient id="A" x1="7.757" y1="7.844" x2="7.757" y2="35.944" gradientUnits="userSpaceOnUse"><stop stop-color="#4b095b"/><stop offset="1" stop-color="#2c0735"/></linearGradient></defs></svg>