<svg xmlns="http://www.w3.org/2000/svg" width="40" height="40" fill="none" xmlns:v="https://vecta.io/nano"><g clip-path="url(#C)"><path d="M36 0H4a4 4 0 0 0-4 4v32a4 4 0 0 0 4 4h32a4 4 0 0 0 4-4V4a4 4 0 0 0-4-4h0z" fill="url(#A)"/><path fill-rule="evenodd" d="M31.56 9.44A1.5 1.5 0 0 1 32 10.5l-.004 16a1.5 1.5 0 0 1-1.5 1.5h-8.2c-.035 0-.07.008-.102.022s-.06.035-.084.06-.04.056-.052.1-.015.068-.01.103c.15 1.497.648 1.926 1.865 2.974l.535.464a.5.5 0 0 1 .034.518.5.5 0 0 1-.444.269h-8.08a.5.5 0 0 1-.443-.269.5.5 0 0 1 .034-.518l.536-.464c1.218-1.047 1.717-1.477 1.864-2.974.003-.035 0-.07-.01-.103s-.03-.064-.052-.1-.052-.047-.084-.06-.067-.02-.102-.02H9.5a1.5 1.5 0 0 1-1.061-.44A1.5 1.5 0 0 1 8 26.5v-16A1.5 1.5 0 0 1 9.5 9h21a1.5 1.5 0 0 1 1.061.439l-.001.001zm-1.707 14.414A.5.5 0 0 0 30 23.5v-12a.5.5 0 0 0-.5-.5h-19a.5.5 0 0 0-.5.5v12a.5.5 0 0 0 .5.5h19a.5.5 0 0 0 .354-.146h-.001zM21.7 18.597c-.068.295-.052.603.047.9 2.08.756 3.356 1.54 3.732 2.3a.5.5 0 0 1-.023.486.5.5 0 0 1-.425.237H14.98a.5.5 0 0 1-.425-.237.5.5 0 0 1-.022-.486c.376-.752 1.65-1.535 3.787-2.326a1.92 1.92 0 0 0-.039-.895 4 4 0 0 1-1.017-3.03 2.75 2.75 0 0 1 .696-2.123c.258-.285.573-.514.925-.67a2.75 2.75 0 0 1 2.234 0 2.74 2.74 0 0 1 .925.67 2.75 2.75 0 0 1 .696 2.123 4.03 4.03 0 0 1-.203 1.645 4.05 4.05 0 0 1-.845 1.426h.008z" fill="url(#B)"/></g><defs><linearGradient id="A" x1="20" y1="0" x2="20" y2="40" gradientUnits="userSpaceOnUse"><stop stop-color="#f2e6ff"/><stop offset="1" stop-color="#e5ccff"/></linearGradient><linearGradient id="B" x1="20" y1="15.904" x2="20" y2="32.5" gradientUnits="userSpaceOnUse"><stop stop-color="#8a13ff"/><stop offset="1" stop-color="#692dbe"/></linearGradient><clipPath id="C"><path fill="#fff" d="M0 0h40v40H0z"/></clipPath></defs></svg>